<svg xmlns="http://www.w3.org/2000/svg" xmlns:xlink="http://www.w3.org/1999/xlink" width="616" zoomAndPan="magnify" viewBox="0 0 462 95.999999" height="128" preserveAspectRatio="xMidYMid meet" version="1.0"><defs><g/></defs><g fill="#ffffff" fill-opacity="1"><g transform="translate(125.37288, 78.370084)"><g><path d="M 55.703125 0 L 52.78125 -36.71875 L 52.40625 -36.71875 L 39.71875 -0.375 L 31.3125 -0.375 L 18.625 -36.71875 L 18.25 -36.71875 L 15.3125 0 L 1.203125 0 L 6.75 -61.9375 L 21.765625 -61.9375 L 35.515625 -26.203125 L 49.25 -61.9375 L 64.265625 -61.9375 L 69.828125 0 Z M 55.703125 0 "/></g></g></g><g fill="#ffffff" fill-opacity="1"><g transform="translate(193.836491, 78.370084)"><g><path d="M 43.46875 -17.421875 L 15.546875 -17.421875 C 15.546875 -14.710938 16.421875 -12.707031 18.171875 -11.40625 C 19.921875 -10.101562 21.820312 -9.453125 23.875 -9.453125 C 26.03125 -9.453125 27.734375 -9.738281 28.984375 -10.3125 C 30.234375 -10.894531 31.660156 -12.035156 33.265625 -13.734375 L 42.875 -8.9375 C 38.863281 -2.226562 32.207031 1.125 22.90625 1.125 C 17.09375 1.125 12.109375 -0.863281 7.953125 -4.84375 C 3.804688 -8.820312 1.734375 -13.613281 1.734375 -19.21875 C 1.734375 -24.820312 3.804688 -29.625 7.953125 -33.625 C 12.109375 -37.632812 17.09375 -39.640625 22.90625 -39.640625 C 29.007812 -39.640625 33.972656 -37.875 37.796875 -34.34375 C 41.628906 -30.820312 43.546875 -25.78125 43.546875 -19.21875 C 43.546875 -18.320312 43.519531 -17.722656 43.46875 -17.421875 Z M 15.921875 -24.78125 L 30.5625 -24.78125 C 30.257812 -26.78125 29.46875 -28.316406 28.1875 -29.390625 C 26.914062 -30.460938 25.28125 -31 23.28125 -31 C 21.070312 -31 19.316406 -30.421875 18.015625 -29.265625 C 16.710938 -28.117188 16.015625 -26.625 15.921875 -24.78125 Z M 15.921875 -24.78125 "/></g></g></g><g fill="#ffffff" fill-opacity="1"><g transform="translate(236.550992, 78.370084)"><g><path d="M 7.125 -4.765625 C 3.53125 -8.691406 1.734375 -13.507812 1.734375 -19.21875 C 1.734375 -24.925781 3.53125 -29.753906 7.125 -33.703125 C 10.726562 -37.660156 15.3125 -39.640625 20.875 -39.640625 C 25.976562 -39.640625 30.179688 -38.039062 33.484375 -34.84375 L 33.484375 -64.5625 L 46.78125 -64.5625 L 46.78125 0 L 33.640625 0 L 33.640625 -4.359375 L 33.484375 -4.359375 C 30.179688 -0.703125 25.976562 1.125 20.875 1.125 C 15.3125 1.125 10.726562 -0.835938 7.125 -4.765625 Z M 18.421875 -25.75 C 16.703125 -24.050781 15.84375 -21.875 15.84375 -19.21875 C 15.84375 -16.5625 16.664062 -14.394531 18.3125 -12.71875 C 19.96875 -11.039062 22.144531 -10.203125 24.84375 -10.203125 C 27.445312 -10.203125 29.585938 -11.050781 31.265625 -12.75 C 32.941406 -14.457031 33.78125 -16.613281 33.78125 -19.21875 C 33.78125 -21.875 32.914062 -24.050781 31.1875 -25.75 C 29.46875 -27.445312 27.351562 -28.296875 24.84375 -28.296875 C 22.289062 -28.296875 20.148438 -27.445312 18.421875 -25.75 Z M 18.421875 -25.75 "/></g></g></g><g fill="#ffffff" fill-opacity="1"><g transform="translate(285.271114, 78.370084)"><g><path d="M 27.328125 -63.0625 C 30.679688 -63.0625 33.957031 -62.570312 37.15625 -61.59375 C 40.363281 -60.625 42.742188 -59.664062 44.296875 -58.71875 L 46.546875 -57.203125 L 40.84375 -45.953125 C 40.394531 -46.242188 39.769531 -46.628906 38.96875 -47.109375 C 38.164062 -47.585938 36.660156 -48.226562 34.453125 -49.03125 C 32.253906 -49.832031 30.203125 -50.234375 28.296875 -50.234375 C 25.953125 -50.234375 24.140625 -49.726562 22.859375 -48.71875 C 21.585938 -47.71875 20.953125 -46.367188 20.953125 -44.671875 C 20.953125 -43.816406 21.25 -43.023438 21.84375 -42.296875 C 22.445312 -41.578125 23.472656 -40.800781 24.921875 -39.96875 C 26.378906 -39.144531 27.65625 -38.484375 28.75 -37.984375 C 29.851562 -37.484375 31.554688 -36.734375 33.859375 -35.734375 C 37.859375 -34.035156 41.269531 -31.722656 44.09375 -28.796875 C 46.925781 -25.867188 48.34375 -22.550781 48.34375 -18.84375 C 48.34375 -15.289062 47.703125 -12.1875 46.421875 -9.53125 C 45.148438 -6.882812 43.398438 -4.804688 41.171875 -3.296875 C 38.953125 -1.796875 36.488281 -0.6875 33.78125 0.03125 C 31.082031 0.757812 28.15625 1.125 25 1.125 C 22.300781 1.125 19.648438 0.847656 17.046875 0.296875 C 14.441406 -0.253906 12.265625 -0.941406 10.515625 -1.765625 C 8.765625 -2.585938 7.1875 -3.398438 5.78125 -4.203125 C 4.375 -5.003906 3.347656 -5.679688 2.703125 -6.234375 L 1.734375 -7.0625 L 8.78125 -18.921875 C 9.382812 -18.421875 10.210938 -17.78125 11.265625 -17 C 12.316406 -16.226562 14.179688 -15.191406 16.859375 -13.890625 C 19.535156 -12.585938 21.898438 -11.9375 23.953125 -11.9375 C 29.910156 -11.9375 32.890625 -13.960938 32.890625 -18.015625 C 32.890625 -18.867188 32.675781 -19.65625 32.25 -20.375 C 31.820312 -21.101562 31.066406 -21.832031 29.984375 -22.5625 C 28.910156 -23.289062 27.960938 -23.863281 27.140625 -24.28125 C 26.316406 -24.707031 24.960938 -25.359375 23.078125 -26.234375 C 21.203125 -27.109375 19.816406 -27.773438 18.921875 -28.234375 C 15.160156 -30.078125 12.253906 -32.390625 10.203125 -35.171875 C 8.148438 -37.953125 7.125 -40.941406 7.125 -44.140625 C 7.125 -49.703125 9.175781 -54.242188 13.28125 -57.765625 C 17.382812 -61.296875 22.066406 -63.0625 27.328125 -63.0625 Z M 27.328125 -63.0625 "/></g></g></g><g fill="#ffffff" fill-opacity="1"><g transform="translate(333.165482, 78.370084)"><g><path d="M 33.703125 -38.515625 L 49.03125 -38.515625 L 18.765625 19.515625 L 3.453125 19.515625 L 16.75 -6 L -1.5 -38.515625 L 13.8125 -38.515625 L 24.546875 -18.765625 Z M 33.703125 -38.515625 "/></g></g></g><g fill="#ffffff" fill-opacity="1"><g transform="translate(378.132095, 78.370084)"><g><path d="M 4.5 0 L 4.5 -38.515625 L 17.796875 -38.515625 L 17.796875 -34.453125 L 17.9375 -34.453125 C 21.394531 -37.910156 25.078125 -39.640625 28.984375 -39.640625 C 30.878906 -39.640625 32.765625 -39.390625 34.640625 -38.890625 C 36.523438 -38.390625 38.328125 -37.613281 40.046875 -36.5625 C 41.773438 -35.507812 43.175781 -34.019531 44.25 -32.09375 C 45.332031 -30.164062 45.875 -27.925781 45.875 -25.375 L 45.875 0 L 32.578125 0 L 32.578125 -21.765625 C 32.578125 -23.773438 31.9375 -25.53125 30.65625 -27.03125 C 29.382812 -28.53125 27.722656 -29.28125 25.671875 -29.28125 C 23.671875 -29.28125 21.859375 -28.503906 20.234375 -26.953125 C 18.609375 -25.398438 17.796875 -23.671875 17.796875 -21.765625 L 17.796875 0 Z M 4.5 0 "/></g></g></g><g fill="#ffffff" fill-opacity="1"><g transform="translate(425.200665, 78.370084)"><g><path d="M 25 -28.75 C 22.5 -28.75 20.347656 -27.820312 18.546875 -25.96875 C 16.742188 -24.125 15.84375 -21.898438 15.84375 -19.296875 C 15.84375 -16.640625 16.742188 -14.382812 18.546875 -12.53125 C 20.347656 -10.6875 22.5 -9.765625 25 -9.765625 C 26.195312 -9.765625 27.332031 -9.910156 28.40625 -10.203125 C 29.488281 -10.503906 30.28125 -10.804688 30.78125 -11.109375 L 31.453125 -11.5625 L 35.96875 -2.328125 C 35.613281 -2.078125 35.125 -1.765625 34.5 -1.390625 C 33.875 -1.015625 32.445312 -0.503906 30.21875 0.140625 C 27.988281 0.796875 25.597656 1.125 23.046875 1.125 C 17.390625 1.125 12.421875 -0.863281 8.140625 -4.84375 C 3.867188 -8.820312 1.734375 -13.585938 1.734375 -19.140625 C 1.734375 -24.742188 3.867188 -29.5625 8.140625 -33.59375 C 12.421875 -37.625 17.390625 -39.640625 23.046875 -39.640625 C 25.597656 -39.640625 27.945312 -39.335938 30.09375 -38.734375 C 32.25 -38.140625 33.78125 -37.539062 34.6875 -36.9375 L 35.96875 -36.03125 L 31.453125 -26.953125 C 29.804688 -28.148438 27.65625 -28.75 25 -28.75 Z M 25 -28.75 "/></g></g></g><path fill="#0086c4" d="M 0 48 C 0 74.511719 21.492188 96 48 96 C 74.511719 96 96 74.511719 96 48 C 96 21.488281 74.511719 0 48 0 C 21.492188 0 0 21.488281 0 48 " fill-opacity="1" fill-rule="nonzero"/><path fill="#0571a3" d="M 95.171875 56.910156 L 57.933594 19.671875 L 38.066406 19.671875 L 38.066406 35.898438 C 39.402344 34.710938 41.164062 33.984375 43.09375 33.984375 C 47.269531 33.984375 50.652344 37.371094 50.652344 41.546875 C 50.652344 45.722656 47.269531 49.109375 43.09375 49.109375 C 38.914062 49.109375 35.53125 45.722656 35.53125 41.546875 C 35.53125 40.292969 35.835938 39.109375 36.378906 38.066406 L 19.671875 38.066406 L 19.671875 57.933594 L 56.910156 95.171875 C 76.273438 91.535156 91.535156 76.273438 95.171875 56.910156 " fill-opacity="1" fill-rule="nonzero"/><path fill="#ffffff" d="M 58.523438 38.066406 L 58.757812 38.300781 C 60.84375 40.386719 61.992188 43.15625 61.992188 46.101562 C 61.992188 49.050781 60.84375 51.820312 58.757812 53.902344 L 50.488281 62.175781 C 46.628906 66.035156 44.261719 70.984375 43.671875 76.328125 L 57.933594 76.328125 L 57.933594 57.933594 L 76.328125 57.933594 L 76.328125 38.066406 L 58.523438 38.066406 " fill-opacity="1" fill-rule="nonzero"/><path fill="#ffffff" d="M 57.933594 38.066406 L 57.933594 19.671875 L 38.066406 19.671875 L 38.066406 35.898438 C 39.402344 34.707031 41.164062 33.984375 43.09375 33.984375 C 47.269531 33.984375 50.652344 37.371094 50.652344 41.546875 C 50.652344 45.722656 47.269531 49.109375 43.09375 49.109375 C 38.914062 49.109375 35.53125 45.722656 35.53125 41.546875 C 35.53125 40.292969 35.835938 39.109375 36.378906 38.066406 L 19.671875 38.066406 L 19.671875 57.933594 L 36.1875 57.933594 L 30.625 52.375 C 29.054688 50.800781 28.191406 48.710938 28.191406 46.492188 C 28.191406 45.097656 28.53125 43.753906 29.171875 42.5625 C 29.132812 42.875 29.109375 43.195312 29.109375 43.519531 C 29.109375 45.539062 29.898438 47.441406 31.328125 48.871094 L 37.003906 54.546875 C 40.085938 57.625 41.78125 61.722656 41.78125 66.078125 C 41.78125 66.5625 41.757812 67.039062 41.71875 67.515625 C 41.128906 64.742188 39.882812 62.15625 38.066406 59.941406 L 38.066406 76.328125 L 42.414062 76.328125 C 42.140625 74.941406 42 73.523438 42 72.082031 C 42 66.304688 44.25 60.871094 48.332031 56.789062 L 55.863281 49.257812 C 57.757812 47.363281 58.800781 44.839844 58.800781 42.160156 C 58.800781 40.726562 58.5 39.339844 57.933594 38.066406 " fill-opacity="1" fill-rule="nonzero"/><path stroke-linecap="butt" transform="matrix(0.75, 0, 0, 0.75, 282.552264, 84.899998)" fill="none" stroke-linejoin="miter" d="M -0.00197659 0.99792 L 210.268868 0.99792 " stroke="#ffffff" stroke-width="2" stroke-opacity="1" stroke-miterlimit="4"/></svg>